<?xml version="1.0" encoding="UTF-8" standalone="no"?>
<svg
   xmlns:dc="http://purl.org/dc/elements/1.1/"
   xmlns:cc="http://creativecommons.org/ns#"
   xmlns:rdf="http://www.w3.org/1999/02/22-rdf-syntax-ns#"
   xmlns:svg="http://www.w3.org/2000/svg"
   xmlns="http://www.w3.org/2000/svg"
   viewBox="0 0 1820.0667 533.33331"
   height="533.33331"
   width="1820.0667"
   xml:space="preserve"
   id="svg2"
   version="1.1"><metadata
     id="metadata8"><rdf:RDF><cc:Work
         rdf:about=""><dc:format>image/svg+xml</dc:format><dc:type
           rdf:resource="http://purl.org/dc/dcmitype/StillImage" /></cc:Work></rdf:RDF></metadata><defs
     id="defs6" /><g
     transform="matrix(1.3333333,0,0,-1.3333333,0,533.33333)"
     id="g10"><g
       transform="scale(0.1)"
       id="g12"><path
         id="path14"
         style="fill:#27292e;fill-opacity:1;fill-rule:nonzero;stroke:none"
         d="m 6607.03,3205.53 -400.5,710.95 c -8.73,15.51 2.47,34.68 20.27,34.68 h 263.8 c 8.54,0 16.39,-4.68 20.46,-12.19 l 229,-423.13 c 4.4,-8.12 16.06,-8.12 20.46,0 l 229,423.13 c 4.07,7.51 11.92,12.19 20.46,12.19 h 257.29 c 17.8,0 29,-19.17 20.26,-34.68 L 6887.04,3205.53 V 2851.1 c 0,-12.85 -10.41,-23.26 -23.26,-23.26 h -233.5 c -12.84,0 -23.25,10.41 -23.25,23.26 v 354.43" /><path
         id="path16"
         style="fill:#27292e;fill-opacity:1;fill-rule:nonzero;stroke:none"
         d="m 7751.51,3242.98 c 0,102.56 -76.52,179.07 -177.46,179.07 -102.56,0 -179.08,-76.51 -179.08,-179.07 0,-102.57 76.52,-179.08 179.08,-179.08 100.94,0 177.46,76.51 177.46,179.08 z m -626.78,0 c 0,247.45 192.1,434.68 449.32,434.68 255.6,0 449.33,-187.23 449.33,-434.68 0,-247.46 -193.73,-434.67 -449.33,-434.67 -257.22,0 -449.32,187.21 -449.32,434.67" /><path
         id="path18"
         style="fill:#27292e;fill-opacity:1;fill-rule:nonzero;stroke:none"
         d="m 8139.67,3117.62 v 517.24 c 0,12.84 10.41,23.25 23.26,23.25 h 217.22 c 12.84,0 23.25,-10.41 23.25,-23.25 V 3197.4 c 0,-82.38 51.69,-134.75 129.76,-133.48 75.62,1.23 135.61,64.54 135.61,140.16 v 430.78 c 0,12.84 10.41,23.25 23.26,23.25 h 217.22 c 12.84,0 23.25,-10.41 23.25,-23.25 v -487.94 c 0,-35.06 28.43,-63.49 63.5,-63.49 v 0 c 8.99,0 16.28,-7.29 16.28,-16.28 V 2851.1 c 0,-12.85 -10.42,-23.26 -23.26,-23.26 h -48.38 c -109.7,0 -186.6,32.79 -229.37,95.72 -4.36,6.4 -13.54,6.58 -18.51,0.65 -64,-76.35 -148.43,-115.9 -251.91,-115.9 -180.71,0 -301.18,122.1 -301.18,309.31" /><path
         id="path20"
         style="fill:#27292e;fill-opacity:1;fill-rule:nonzero;stroke:none"
         d="m 9153.86,3101.34 v 304.2 c 0,6.42 -5.21,11.63 -11.63,11.63 h -83.96 c -12.84,0 -23.26,10.42 -23.26,23.26 v 194.43 c 0,12.84 10.42,23.25 23.26,23.25 h 38.61 c 39.56,0 71.63,32.07 71.63,71.64 v 85.13 c 0,12.84 10.41,23.25 23.26,23.25 h 202.57 c 12.84,0 23.25,-10.41 23.25,-23.25 v -145.14 c 0,-6.42 5.21,-11.63 11.63,-11.63 h 235.36 c 12.85,0 23.26,-10.41 23.26,-23.25 v -194.43 c 0,-12.84 -10.41,-23.26 -23.26,-23.26 h -235.36 c -6.42,0 -11.63,-5.21 -11.63,-11.63 v -276.63 c 0,-33.08 26.78,-60.66 59.85,-60.12 31.63,0.52 53.73,21.06 59.27,58.6 1.66,11.27 11.51,19.53 22.9,19.53 h 188.92 c 13.4,0 24.03,-11.33 23.3,-24.7 -9.92,-181.03 -129.66,-294.38 -313.54,-294.38 -180.7,0 -304.43,109.07 -304.43,273.5" /><path
         id="path22"
         style="fill:#27292e;fill-opacity:1;fill-rule:nonzero;stroke:none"
         d="m 9900.41,4000 h 217.19 c 12.9,0 23.3,-10.41 23.3,-23.26 v -369.85 c 0,-10.02 11.7,-15.22 19.3,-8.62 61,53.52 136.6,79.98 222.9,79.38 171.8,-1.2 309.7,-143.01 309.7,-314.88 v -217.48 c 0,-34.16 27.7,-61.86 61.8,-61.86 v 0 c 9.9,0 18,-8.02 18,-17.91 V 2851.1 c 0,-12.85 -10.5,-23.26 -23.3,-23.26 h -50 c -179.1,0 -270.3,86.28 -270.3,258.85 v 192.11 c 0,86.28 -53.7,143.25 -136.7,143.25 -91.2,0 -151.4,-58.6 -151.4,-146.51 V 2851.1 c 0,-12.85 -10.4,-23.26 -23.3,-23.26 h -217.19 c -12.84,0 -23.26,10.41 -23.26,23.26 v 1125.64 c 0,12.85 10.42,23.26 23.26,23.26" /><path
         id="path24"
         style="fill:#27292e;fill-opacity:1;fill-rule:nonzero;stroke:none"
         d="m 6630.28,2546.87 h 233.5 c 12.84,0 23.26,-10.41 23.26,-23.25 V 1446.81 c 0,-12.84 -10.42,-23.26 -23.26,-23.26 h -233.5 c -12.85,0 -23.26,10.42 -23.26,23.26 v 1076.81 c 0,12.84 10.41,23.25 23.26,23.25" /><path
         id="path26"
         style="fill:#27292e;fill-opacity:1;fill-rule:nonzero;stroke:none"
         d="m 7026.58,2253.83 h 217.22 c 12.85,0 23.26,-10.41 23.26,-23.26 v -22.78 c 0,-9.82 11.34,-15.11 18.95,-8.91 61.26,49.94 137.13,75.18 223.86,74.48 171.48,-1.38 309.08,-142.51 309.08,-313.99 v -218.36 c 0,-34.17 27.7,-61.86 61.86,-61.86 v 0 c 9.89,0 17.91,-8.02 17.91,-17.91 v -214.43 c 0,-12.84 -10.41,-23.26 -23.26,-23.26 h -50 c -179.08,0 -270.24,86.29 -270.24,258.85 v 192.11 c 0,86.29 -53.73,143.26 -136.76,143.26 -91.17,0 -151.4,-58.61 -151.4,-146.51 v -424.45 c 0,-12.84 -10.41,-23.26 -23.26,-23.26 h -217.22 c -12.84,0 -23.26,10.42 -23.26,23.26 v 783.76 c 0,12.85 10.42,23.26 23.26,23.26" /><path
         id="path28"
         style="fill:#27292e;fill-opacity:1;fill-rule:nonzero;stroke:none"
         d="m 8025.41,1680.78 h 217.71 c 10.27,0 19.29,-6.75 22.18,-16.61 9.87,-33.57 49.57,-56.65 100.2,-56.65 50.46,0 87.91,22.79 87.91,55.35 0,107.45 -439.56,35.82 -439.56,338.63 0,182.33 156.29,271.87 338.62,271.87 190.16,0 331.21,-102.57 346.93,-238.31 1.58,-13.61 -9.51,-25.43 -23.21,-25.43 h -214.85 c -10.19,0 -18.74,6.77 -22.17,16.37 -9.85,27.54 -44.24,47.12 -86.7,47.12 -45.58,0 -81.4,-21.16 -81.4,-52.09 0,-104.19 444.45,-37.44 444.45,-333.74 0,-169.31 -143.27,-283.27 -350.02,-283.27 -204.54,0 -348.06,108.96 -363.33,251.39 -1.45,13.59 9.57,25.37 23.24,25.37" /><path
         id="path30"
         style="fill:#27292e;fill-opacity:1;fill-rule:nonzero;stroke:none"
         d="m 8855.8,2253.83 h 217.23 c 12.84,0 23.25,-10.41 23.25,-23.26 v -783.76 c 0,-12.84 -10.41,-23.26 -23.25,-23.26 H 8855.8 c -12.84,0 -23.25,10.42 -23.25,23.26 v 783.76 c 0,12.85 10.41,23.26 23.25,23.26" /><path
         id="path32"
         style="fill:#27292e;fill-opacity:1;fill-rule:nonzero;stroke:none"
         d="m 9839.35,1861.49 c 0,96.05 -76.52,170.93 -177.45,170.93 -102.57,0 -179.08,-74.88 -179.08,-170.93 0,-97.69 76.51,-172.57 179.08,-172.57 100.93,0 177.45,74.88 177.45,172.57 z m -626.78,0 c 0,234.42 169.31,411.88 395.6,411.88 92.8,0 170.94,-30.93 231.18,-83.03 v 40.23 c 0,12.85 10.41,23.26 23.26,23.26 h 217.19 c 12.9,0 23.3,-10.41 23.3,-23.26 V 1513.1 c 0,-252.35 -170.96,-418.41 -428.18,-418.41 -206.77,0 -369.66,105.31 -413.82,275.71 -3.78,14.58 7.59,28.74 22.64,28.74 h 229.53 c 7.88,0 15.21,-3.99 19.44,-10.64 26.19,-41.17 82.24,-67.51 143.84,-67.51 100.93,0 162.8,66.75 162.8,179.08 v 6.75 c 0,9.6 -10.91,14.97 -18.59,9.21 -57.41,-43 -129.06,-68.06 -212.59,-68.06 -226.29,0 -395.6,177.46 -395.6,413.52" /><path
         id="path34"
         style="fill:#27292e;fill-opacity:1;fill-rule:nonzero;stroke:none"
         d="m 10242.6,2595.72 h 217.2 c 12.9,0 23.3,-10.42 23.3,-23.26 v -369.85 c 0,-10.02 11.8,-15.23 19.3,-8.62 61,53.51 136.6,79.98 222.9,79.37 170.3,-1.18 309.7,-144.53 309.7,-314.88 v -217.47 c 0,-34.17 27.7,-61.86 61.9,-61.86 v 0 c 9.9,0 17.9,-8.02 17.9,-17.91 v -214.43 c 0,-12.84 -10.4,-23.26 -23.3,-23.26 h -50 c -179.1,0 -270.2,86.29 -270.2,258.85 v 192.11 c 0,86.29 -53.8,143.26 -136.8,143.26 -91.2,0 -151.4,-58.61 -151.4,-146.51 v -424.45 c 0,-12.84 -10.4,-23.26 -23.3,-23.26 h -217.2 c -12.8,0 -23.2,10.42 -23.2,23.26 v 1125.65 c 0,12.84 10.4,23.26 23.2,23.26" /><path
         id="path36"
         style="fill:#27292e;fill-opacity:1;fill-rule:nonzero;stroke:none"
         d="m 11259.8,1697.05 v 304.21 c 0,6.42 -5.2,11.63 -11.6,11.63 h -84 c -12.8,0 -23.2,10.41 -23.2,23.26 v 194.42 c 0,12.85 10.4,23.26 23.2,23.26 h 38.6 c 39.6,0 71.7,32.07 71.7,71.63 v 85.13 c 0,12.84 10.4,23.26 23.2,23.26 h 202.6 c 12.9,0 23.3,-10.42 23.3,-23.26 v -145.13 c 0,-6.42 5.2,-11.63 11.6,-11.63 h 235.4 c 12.8,0 23.2,-10.41 23.2,-23.26 v -194.42 c 0,-12.85 -10.4,-23.26 -23.2,-23.26 h -235.4 c -6.4,0 -11.6,-5.21 -11.6,-11.63 v -276.63 c 0,-33.08 26.7,-60.67 59.8,-60.12 31.6,0.52 53.7,21.06 59.3,58.6 1.6,11.26 11.5,19.53 22.9,19.53 h 188.9 c 13.4,0 24,-11.33 23.3,-24.71 -9.9,-181.02 -129.7,-294.38 -313.5,-294.38 -180.7,0 -304.5,109.08 -304.5,273.5" /><path
         id="path38"
         style="fill:#27292e;fill-opacity:1;fill-rule:nonzero;stroke:none"
         d="m 6887.04,867.488 v -229.09 c 0,-6.418 5.2,-11.617 11.63,-11.617 h 229.31 c 70,0 123.73,53.719 123.73,125.36 0,73.25 -53.73,126.98 -123.73,126.98 h -229.31 c -6.43,0 -11.63,-5.211 -11.63,-11.633 z m -280.02,252.102 c 0,12.85 10.41,23.26 23.26,23.26 h 504.21 c 229.55,0 403.75,-167.678 403.75,-390.709 0,-221.411 -174.2,-389.102 -403.75,-389.102 h -235.82 c -6.43,0 -11.63,-5.199 -11.63,-11.629 V 42.7891 c 0,-12.8399 -10.42,-23.2578 -23.26,-23.2578 h -233.5 c -12.85,0 -23.26,10.4179 -23.26,23.2578 V 1119.59" /><path
         id="path40"
         style="fill:#27292e;fill-opacity:1;fill-rule:nonzero;stroke:none"
         d="m 7654.52,289.781 v 878.659 c 0,12.84 10.42,23.25 23.26,23.25 H 7895 c 12.85,0 23.26,-10.41 23.26,-23.25 V 348.391 c 0,-47.219 27.68,-73.27 79.77,-73.27 h 27.21 c 12.85,0 23.26,-10.41 23.26,-23.25 V 42.7891 c 0,-12.8399 -10.41,-23.2578 -23.26,-23.2578 h -67.91 c -201.87,0 -302.81,91.1677 -302.81,270.2497" /><path
         id="path42"
         style="fill:#27292e;fill-opacity:1;fill-rule:nonzero;stroke:none"
         d="m 8775.74,434.68 c 0,102.55 -76.52,179.07 -179.08,179.07 -102.57,0 -177.45,-76.52 -177.45,-179.07 0,-102.571 74.88,-179.09 177.45,-179.09 102.56,0 179.08,76.519 179.08,179.09 z m -628.41,0 c 0,247.441 170.94,434.672 397.23,434.672 82.24,0 153.88,-26.5 212.53,-71.114 7.67,-5.84 18.65,-0.468 18.65,9.172 v 19.141 c 0,12.847 10.41,23.258 23.26,23.258 h 217.22 c 12.84,0 23.25,-10.411 23.25,-23.258 V 336.988 c 0,-34.168 27.7,-61.867 61.87,-61.867 v 0 c 8.99,0 16.28,-7.281 16.28,-16.269 V 42.7891 c 0,-12.8399 -10.41,-23.2578 -23.26,-23.2578 h -48.37 c -108.43,0 -183.91,31.5195 -226.44,93.1987 -4.26,6.192 -13.12,6.481 -18.16,0.911 C 8737.08,42.5117 8649.62,0 8544.56,0 8318.27,0 8147.33,187.219 8147.33,434.68" /><path
         id="path44"
         style="fill:#27292e;fill-opacity:1;fill-rule:nonzero;stroke:none"
         d="m 10328.3,1225.88 c -184,0 -309.3,-110.7 -309.3,-275.142 v -89.297 c 0,-6.429 -5.2,-11.632 -11.6,-11.632 h -468.88 c -6.42,0 -11.62,5.203 -11.62,11.632 v 145.129 c 0,12.84 -10.42,23.25 -23.26,23.25 h -202.57 c -12.85,0 -23.26,-10.41 -23.26,-23.25 v -85.129 c 0,-39.562 -32.07,-71.632 -71.63,-71.632 h -38.61 c -12.84,0 -23.25,-10.411 -23.25,-23.258 v -194.43 c 0,-12.84 10.41,-23.25 23.25,-23.25 h 83.96 c 6.42,0 11.63,-5.211 11.63,-11.633 V 293.031 c 0,-164.422 123.73,-273.4997 304.43,-273.4997 183.88,0 303.62,113.3597 313.54,294.3787 0.73,13.379 -9.91,24.711 -23.3,24.711 l -188.92,-0.012 c -11.39,0 -21.24,-8.257 -22.9,-19.531 -5.54,-37.539 -27.64,-58.066 -59.27,-58.586 -33.07,-0.551 -59.84,27.039 -59.84,60.11 v 276.636 c 0,6.422 5.2,11.633 11.62,11.633 h 468.88 c 6.4,0 11.6,-5.211 11.6,-11.633 V 42.7891 c 0,-12.8399 10.4,-23.2578 23.2,-23.2578 h 217.3 c 12.8,0 23.2,10.4179 23.2,23.2578 V 597.238 c 0,6.422 5.2,11.633 11.7,11.633 h 193 c 12.8,0 23.2,10.41 23.2,23.25 v 194.43 c 0,12.847 -10.4,23.258 -23.2,23.258 h -193 c -6.5,0 -11.7,5.203 -11.7,11.632 v 61.118 c 0,33.839 27.1,61.98 60.9,62.371 31.6,0.359 54.2,-16.571 60.8,-45.008 2.5,-10.703 11.7,-18.481 22.7,-18.481 h 189.7 c 13.5,0 24.2,11.379 23.3,24.778 -10.4,171.321 -129.9,279.661 -311.8,279.661" /><path
         id="path46"
         style="fill:#27292e;fill-opacity:1;fill-rule:nonzero;stroke:none"
         d="m 11215.3,434.68 c 0,102.55 -76.5,179.07 -177.5,179.07 -102.5,0 -179.1,-76.52 -179.1,-179.07 0,-102.571 76.6,-179.09 179.1,-179.09 101,0 177.5,76.519 177.5,179.09 z m -626.8,0 c 0,247.441 192.1,434.672 449.3,434.672 255.6,0 449.4,-187.231 449.4,-434.672 C 11487.2,187.219 11293.4,0 11037.8,0 c -257.2,0 -449.3,187.219 -449.3,434.68" /><path
         id="path48"
         style="fill:#27292e;fill-opacity:1;fill-rule:nonzero;stroke:none"
         d="m 11626.7,849.809 h 217.2 c 12.9,0 23.3,-10.411 23.3,-23.258 v -53.723 c 0,-10.558 12.8,-15.508 20.1,-7.887 59.9,62.52 132.9,97.887 217.6,97.887 h 12.5 c 12.9,0 23.3,-10.406 23.3,-23.246 V 614.219 c 0,-12.848 -10.4,-23.258 -23.3,-23.258 h -12.5 c -154.7,0 -237.7,-74.879 -237.7,-192.102 V 42.7891 c 0,-12.8399 -10.4,-23.2578 -23.3,-23.2578 h -217.2 c -12.8,0 -23.3,10.4179 -23.3,23.2578 V 826.551 c 0,12.847 10.5,23.258 23.3,23.258" /><path
         id="path50"
         style="fill:#27292e;fill-opacity:1;fill-rule:nonzero;stroke:none"
         d="m 12280.2,849.809 h 217.2 c 12.9,0 23.3,-10.411 23.3,-23.258 v -20.742 c 0,-9.887 11.5,-15.137 19.1,-8.809 57,47.449 126.9,72.352 207.2,72.352 106.5,0 191.1,-42.461 244,-116.262 4.3,-6.11 13.3,-6.09 18.2,-0.391 65.9,76.832 155.2,116.653 263.6,116.653 179.1,0 298,-120.473 298,-306.071 V 336.988 c 0,-40.699 22.8,-61.867 61.8,-61.867 v 0 c 9.9,0 17.9,-8.012 17.9,-17.902 V 42.7891 c 0,-12.8399 -10.4,-23.2578 -23.2,-23.2578 h -50 c -179.1,0 -270.3,86.2887 -270.3,258.8477 v 205.133 c 0,78.148 -48.8,130.238 -123.7,130.238 -81.4,0 -136.8,-53.73 -136.8,-133.488 V 42.7891 c 0,-12.8399 -10.4,-23.2578 -23.2,-23.2578 h -217.2 c -12.9,0 -23.3,10.4179 -23.3,23.2578 V 483.512 c 0,78.148 -48.8,130.238 -123.7,130.238 -81.4,0 -138.4,-53.73 -138.4,-133.488 V 42.7891 c 0,-12.8399 -10.4,-23.2578 -23.3,-23.2578 h -217.2 c -12.8,0 -23.2,10.4179 -23.2,23.2578 V 826.551 c 0,12.847 10.4,23.258 23.2,23.258" /><path
         id="path52"
         style="fill:#4c64b8;fill-opacity:1;fill-rule:nonzero;stroke:none"
         d="m 8964.41,2363.63 -103.8,103.81 c -57.33,57.32 -57.33,150.27 0,207.6 v 0 c 57.33,57.33 150.28,57.33 207.61,0 v 0 c 57.32,-57.33 57.32,-150.28 0,-207.6 l -103.81,-103.81" /><path
         id="path54"
         style="fill:#f14b37;fill-opacity:1;fill-rule:nonzero;stroke:none"
         d="m 4150.54,3951.26 h -0.01 c -665.25,0 -1253.26,-330.47 -1609.01,-836.14 -224.9,-319.68 -357.03,-709.34 -357.03,-1129.9 V 1111.42 19.1719 h 1966.05 c 1085.81,0 1966.04,880.2261 1966.04,1966.0381 v 0.01 c 0,1085.81 -880.23,1966.04 -1966.04,1966.04" /><path
         id="path56"
         style="fill:#fbc810;fill-opacity:1;fill-rule:nonzero;stroke:none"
         d="m 1092.25,2203.66 h -0.01 c -57.37,0 -113.693,-4.44 -168.674,-12.97 C 400.434,2109.59 0,1657.28 0,1111.42 v 0 C 0,508.191 489.016,19.1719 1092.24,19.1719 H 2184.49 V 1111.42 c 0,603.23 -489.01,1092.24 -1092.24,1092.24" /><path
         id="path58"
         style="fill:#4c64b8;fill-opacity:1;fill-rule:nonzero;stroke:none"
         d="M 1263.15,940.52 2184.49,19.1719 3105.84,940.52 c 508.84,508.84 508.84,1333.84 0,1842.68 v 0.01 c -508.85,508.84 -1333.85,508.84 -1842.69,0 v -0.01 c -508.849,-508.84 -508.849,-1333.84 0,-1842.68" /><path
         id="path60"
         style="fill:#4c64b8;fill-opacity:1;fill-rule:nonzero;stroke:none"
         d="m 1092.25,2203.66 c 603.23,0 1092.24,-489.01 1092.24,-1092.24 v 873.8 c 0,420.56 132.13,810.22 357.03,1129.9 -439.73,124.83 -932.2,14.26 -1278.37,-331.91 v -0.01 c -170.06,-170.05 -283.193,-375.43 -339.584,-592.51 54.981,8.52 111.314,12.97 168.674,12.97 h 0.01" /><path
         id="path62"
         style="fill:#5b60b6;fill-opacity:1;fill-rule:nonzero;stroke:none"
         d="m 3105.84,2783.2 -0.01,0.01 c -162.67,162.67 -357.67,273.24 -564.31,331.91 -224.9,-319.68 -357.03,-709.34 -357.03,-1129.9 V 1111.42 19.1719 L 3105.84,940.52 c 508.84,508.84 508.84,1333.84 0,1842.68" /><path
         id="path64"
         style="fill:#5f78c4;fill-opacity:1;fill-rule:nonzero;stroke:none"
         d="m 1092.25,2203.66 h -0.01 c -57.36,0 -113.693,-4.45 -168.674,-12.97 -112.343,-432.46 0.789,-911.38 339.584,-1250.17 L 2184.49,19.1719 V 1111.42 c 0,603.23 -489.01,1092.24 -1092.24,1092.24" /></g></g></svg>